<svg id="Layer_1" data-name="Layer 1" xmlns="http://www.w3.org/2000/svg" viewBox="0 0 550 205.17">
    <title>LCX</title>
    <g id="lcx_logo">
        <polygon
                points="118.11 103.12 172.48 157.18 204.78 156.98 149.6 102.48 204.85 47.93 172.97 47.5 118.11 103.12"/>
        <polygon
                points="103.19 86.74 157.24 32.37 157.05 0.07 102.54 55.25 48 0 47.56 31.88 103.19 86.74"/>
        <polygon
                points="86.74 101.56 32.37 47.5 0.07 47.69 55.25 102.2 0 156.75 31.88 157.18 86.74 101.56"/>
        <polygon
                points="101.66 118.43 47.6 172.8 47.8 205.1 102.31 149.92 156.85 205.17 157.28 173.29 101.66 118.43"/>
        <g id="txt">
            <path
                    d="M314.08,143.4c0,18.95,0,29.16,3.11,31.83,2.52,2.22,6.37,3.26,17.91,3.26,7.85,0,13.62-.15,17.33-4.15a18.54,18.54,0,0,0,3.84-8.88c.15-1.33.45-2.22,1.63-2.22s1.19.74,1.19,2.51-1,12.74-2.22,17c-.89,3.26-1.63,4-9.33,4-10.66,0-18.36-.3-25-.45s-12-.44-18.06-.44c-1.63,0-4.89,0-8.44.15-3.41,0-7.25.29-10.21.29-1.93,0-3-.44-3-1.48,0-.74.6-1.18,2.37-1.18a23.85,23.85,0,0,0,5.33-.6c3-.59,3.7-3.84,4.3-8.14.74-6.22.74-17.91.74-31.53V117.34c0-22.5,0-26.64-.3-31.38-.3-5-1.48-7.4-6.37-8.44a21.72,21.72,0,0,0-4.88-.44c-1.63,0-2.52-.3-2.52-1.34s1-1.33,3.26-1.33c7,0,16.28.45,20.28.45,3.55,0,14.36-.45,20.13-.45,2.08,0,3.11.3,3.11,1.33s-.88,1.34-2.66,1.34a38.73,38.73,0,0,0-5.77.44c-4,.74-5.19,3.26-5.48,8.44-.3,4.74-.3,8.88-.3,31.38Z"
                    transform="translate(-38.25 -27.38)"/>
            <path
                    d="M386.77,172.27c-14.51-12.73-18.36-29.31-18.36-43.67,0-10.07,3.11-27.54,17.32-40.57,10.66-9.77,24.72-15.69,46.78-15.69A146.16,146.16,0,0,1,454,73.82c5.62.74,10.36,2.07,14.8,2.52,1.63.14,2.22.88,2.22,1.77,0,1.19-.44,3-.74,8.14-.29,4.89-.15,13-.44,16-.15,2.22-.45,3.41-1.78,3.41s-1.48-1.19-1.48-3.26a21.14,21.14,0,0,0-5.77-13.62c-4.89-5.18-16.43-9.18-30.06-9.18-12.88,0-21.31,3.26-27.83,9.18-10.8,9.92-13.62,24-13.62,38.35,0,35.23,26.8,52.7,46.64,52.7,13.17,0,21.17-1.48,27.09-8.29a24.83,24.83,0,0,0,5-9.77c.45-2.37.74-3,1.93-3,1,0,1.33,1,1.33,2.22A141.13,141.13,0,0,1,468,180.71c-.74,2.51-1.33,3.25-3.85,4.29-5.92,2.37-17.17,3.41-26.65,3.41C417.26,188.41,400.24,184,386.77,172.27Z"
                    transform="translate(-38.25 -27.38)"/>
            <path
                    d="M539.69,124.45c4.74,7.25,28.72,47.37,32.42,52.11,2.52,3.26,4.74,5,8.59,6.22a19.3,19.3,0,0,0,5.62.89c1,0,1.93.29,1.93,1.18,0,1-1.19,1.48-2.82,1.48H581c-3.55,0-15.25,0-26.65-.29-3.84-.15-5-.45-5-1.48s.74-1.34,2.07-1.63c.74-.15,1.34-1.48.3-3.41-8.14-14.51-16.58-29.16-23.39-40.27l-21.91,35.39c-1.48,2.37-2.22,4.59-2.07,6.21.14,1.34,1.48,2.22,2.81,2.52a22.15,22.15,0,0,0,3.4.3c.89,0,1.78.44,1.78,1.33,0,1-1,1.33-3,1.33h-2.67c-.88,0-10.21-.44-13.91-.44-2.81,0-10.07.44-12.44.44h-2.51c-1.49,0-2.23-.44-2.23-1.33s.89-1.33,2.08-1.33a23.41,23.41,0,0,0,5.48-.74c4.29-1.19,7.1-4,12.13-11.11l28.28-40.41L498.09,89.22c-3.56-5.93-7.11-9.48-12.29-11.11a22.46,22.46,0,0,0-6.22-1,1.33,1.33,0,0,1-1.48-1.48c0-.89,1-1.19,3-1.19,3.56,0,15.55.45,22.51.45,2.07,0,10.36-.45,15.84-.45,2.07,0,3,.3,3,1.33s-.89,1.34-2.22,1.34a13.54,13.54,0,0,0-4,.59A2.42,2.42,0,0,0,514.37,80a11.43,11.43,0,0,0,1.48,4.29c6.37,11.84,13,22.65,18.8,32.72,4.3-6.52,17.92-27.09,20.14-31.24a12.77,12.77,0,0,0,1.63-5.63,3.26,3.26,0,0,0-2.52-2.66,18.39,18.39,0,0,0-4.74-.44c-.88,0-1.77-.3-1.77-1.34,0-.88,1-1.33,3.11-1.33,5.77,0,12,.45,14.8.45,3,0,9-.45,14.51-.45,1.63,0,2.66.45,2.66,1.33s-.89,1.34-2.37,1.34a20,20,0,0,0-5.33.88c-3.4.89-6.36,5-10.8,11.55Z"
                    transform="translate(-38.25 -27.38)"/>
        </g>
    </g>
</svg>